<?xml version="1.0" standalone="no"?>
<!DOCTYPE svg PUBLIC "-//W3C//DTD SVG 20010904//EN"
 "http://www.w3.org/TR/2001/REC-SVG-20010904/DTD/svg10.dtd">
<svg version="1.0" xmlns="http://www.w3.org/2000/svg"
 width="2295.000000pt" height="2295.000000pt" viewBox="0 0 2295.000000 2295.000000"
 preserveAspectRatio="xMidYMid meet">
<metadata>
Created by potrace 1.14, written by Peter Selinger 2001-2017
</metadata>
<g transform="translate(0.000000,2295.000000) scale(0.100000,-0.100000)"
fill="#000000" stroke="none">
<path d="M11168 22765 c-2 -2 -27 -6 -56 -9 -104 -12 -267 -63 -372 -116 -381
-191 -618 -516 -696 -950 -2 -14 -6 -81 -9 -150 -7 -213 36 -414 128 -596 58
-115 150 -244 234 -327 235 -233 541 -367 854 -372 273 -5 530 68 742 210 37
25 70 45 74 45 6 0 89 -46 234 -130 14 -8 91 -52 170 -98 79 -46 151 -87 159
-93 14 -8 274 -158 346 -199 32 -18 123 -71 550 -318 144 -83 284 -163 310
-178 27 -15 61 -35 76 -45 14 -11 29 -19 32 -19 3 0 34 -17 68 -38 35 -21 88
-52 118 -69 30 -16 185 -105 344 -198 316 -183 298 -172 476 -274 69 -39 132
-75 140 -80 16 -10 307 -179 1000 -579 223 -128 509 -294 635 -367 127 -73
246 -142 265 -152 19 -11 98 -57 175 -101 l140 -81 -1 -133 c-1 -151 -12 -898
-20 -1338 -2 -162 -6 -416 -9 -565 -8 -595 -17 -1165 -19 -1262 -1 -66 2 -103
9 -103 60 -3 947 -1 950 2 2 2 7 210 10 463 3 253 8 602 10 775 2 173 7 509
10 745 9 703 14 1126 20 1560 l6 410 -343 198 c-189 109 -350 203 -358 208 -8
5 -231 133 -495 285 -264 152 -536 309 -605 349 -1576 909 -2002 1156 -2095
1210 -94 55 -644 373 -705 408 -73 41 -1076 620 -1095 632 -19 12 -20 24 -22
176 -2 237 -45 413 -150 614 -114 218 -375 456 -598 545 -33 13 -64 27 -70 31
-10 7 -151 48 -190 55 -86 15 -165 22 -262 22 -62 -1 -114 -2 -115 -3z m252
-625 c69 -14 187 -59 201 -77 6 -7 16 -13 22 -13 11 0 111 -83 144 -120 40
-45 99 -154 124 -225 31 -93 36 -275 9 -364 -19 -64 -117 -239 -159 -285 -34
-37 -134 -107 -193 -135 -241 -114 -535 -64 -724 124 -206 204 -253 508 -117
768 48 92 163 209 253 257 133 70 304 97 440 70z"/>
<path d="M9019 20538 c-96 -55 -194 -112 -219 -126 -25 -13 -57 -33 -72 -43
-14 -11 -29 -19 -32 -19 -3 0 -58 -30 -121 -67 -64 -38 -135 -79 -158 -92 -23
-13 -303 -175 -622 -359 -734 -424 -1021 -589 -1065 -614 -19 -11 -102 -59
-185 -107 -82 -48 -373 -216 -646 -374 -272 -157 -511 -294 -530 -306 -19 -11
-50 -28 -69 -39 -19 -11 -134 -77 -255 -147 -121 -71 -249 -145 -285 -165 -36
-20 -105 -61 -155 -89 -49 -29 -108 -63 -130 -76 -22 -12 -56 -31 -75 -42
-192 -111 -303 -175 -331 -192 -19 -12 -41 -24 -49 -28 -8 -4 -75 -43 -150
-86 -74 -44 -160 -94 -190 -110 -30 -17 -88 -50 -128 -74 -41 -24 -78 -43 -83
-43 -5 0 -30 15 -56 34 -145 103 -377 191 -558 213 -137 16 -315 7 -436 -21
-305 -71 -583 -260 -760 -516 -345 -500 -288 -1169 136 -1595 90 -91 140 -135
154 -135 5 0 11 -4 13 -8 5 -14 109 -77 198 -119 95 -46 175 -72 300 -99 119
-25 363 -25 480 0 463 100 816 414 960 856 44 134 59 246 57 409 -2 134 0 145
18 155 11 6 42 25 70 41 27 17 61 36 75 43 14 6 43 23 65 36 22 14 63 37 90
51 28 15 57 32 65 39 8 6 24 16 35 22 36 19 837 480 875 503 17 10 277 161
349 202 25 14 100 58 166 96 66 39 210 122 320 185 110 64 362 209 560 323
198 115 459 265 580 335 229 132 258 149 1040 600 264 153 496 287 515 297 19
11 102 59 183 107 82 47 151 86 154 86 3 0 16 9 30 20 14 11 32 20 39 20 8 0
114 -60 236 -133 269 -161 664 -397 1593 -951 385 -230 711 -426 725 -435 14
-10 32 -20 40 -24 8 -3 85 -48 170 -100 115 -70 158 -92 166 -83 9 9 111 183
231 394 13 23 53 93 89 154 35 61 64 112 64 114 0 3 12 23 27 47 30 46 63 105
63 111 0 4 -119 76 -126 76 -3 0 -20 11 -38 25 -18 14 -35 25 -39 25 -3 0 -97
55 -209 122 -112 66 -216 129 -233 138 -16 10 -122 72 -235 140 -113 68 -218
130 -235 140 -16 9 -133 78 -259 154 -125 75 -231 136 -234 136 -3 0 -20 11
-38 25 -18 14 -35 25 -37 25 -3 0 -151 87 -329 193 -177 106 -348 207 -378
225 -30 18 -62 37 -70 42 -23 15 -423 252 -445 264 -30 17 -415 246 -456 272
l-36 22 -174 -100z m-6172 -3573 c117 -31 236 -99 309 -176 56 -59 152 -230
171 -304 21 -78 20 -222 -1 -303 -86 -327 -388 -533 -716 -489 -143 20 -266
82 -369 187 -77 76 -120 145 -158 250 -24 67 -27 89 -27 200 0 111 3 134 28
205 15 44 43 106 62 137 80 131 235 247 384 287 87 23 239 26 317 6z"/>
<path d="M19884 17895 c-381 -59 -700 -276 -904 -614 -55 -92 -112 -233 -134
-331 -8 -36 -18 -78 -22 -95 -14 -62 -13 -328 2 -405 8 -41 16 -87 19 -101 11
-60 60 -190 106 -279 121 -237 323 -435 566 -557 l73 -37 0 -3025 0 -3026 -47
-25 c-27 -14 -84 -46 -128 -71 -44 -25 -114 -64 -155 -86 -41 -22 -147 -81
-235 -130 -157 -88 -216 -121 -305 -171 -25 -14 -142 -79 -260 -145 -118 -66
-237 -132 -265 -147 -27 -15 -68 -38 -90 -50 -33 -19 -158 -89 -442 -246 -24
-13 -78 -43 -120 -67 -43 -25 -105 -59 -138 -77 -71 -39 -66 -37 -468 -260
-236 -131 -313 -179 -309 -190 3 -8 25 -46 47 -85 23 -38 53 -90 67 -115 61
-110 350 -606 357 -613 4 -4 129 61 277 144 309 174 562 316 769 431 44 25
103 57 130 73 55 31 687 385 750 420 22 12 112 63 200 112 88 49 203 114 255
143 52 29 145 81 205 115 61 34 135 76 165 92 30 17 161 90 290 163 129 72
264 148 300 168 36 19 76 43 90 52 l25 18 0 3297 c0 3288 0 3298 20 3310 11 7
56 32 100 55 349 185 598 544 651 940 25 184 -1 409 -69 600 -112 313 -366
586 -670 718 -96 43 -230 85 -307 97 -81 12 -313 12 -396 0z m348 -621 c89
-25 139 -47 206 -93 130 -88 233 -240 268 -398 22 -101 9 -271 -28 -368 -43
-112 -140 -233 -243 -303 -120 -80 -195 -102 -355 -102 -147 0 -214 14 -313
68 -277 149 -408 482 -307 778 77 223 287 400 512 430 24 4 44 7 45 8 9 8 165
-6 215 -20z"/>
<path d="M5710 15934 c-74 -42 -216 -121 -315 -177 -99 -55 -193 -108 -210
-117 -16 -9 -140 -78 -275 -154 -135 -75 -252 -141 -260 -146 -8 -6 -21 -13
-29 -17 -8 -4 -58 -31 -110 -61 -53 -30 -119 -67 -147 -82 -106 -58 -360 -200
-374 -210 -8 -6 -22 -13 -30 -17 -8 -4 -52 -29 -98 -55 -46 -26 -86 -48 -88
-48 -2 0 -21 -10 -42 -23 -20 -13 -62 -37 -92 -54 -52 -29 -261 -145 -400
-223 -113 -63 -337 -189 -585 -327 -132 -74 -244 -140 -250 -147 -7 -9 -10
-1126 -9 -3308 l0 -3296 -60 -27 c-155 -68 -356 -235 -476 -393 -94 -124 -201
-371 -223 -512 -17 -108 -20 -146 -19 -255 0 -101 22 -257 45 -330 2 -5 11
-34 20 -64 28 -90 114 -251 181 -341 187 -249 459 -423 759 -484 155 -32 369
-33 507 -1 14 3 39 8 55 11 53 9 198 65 274 106 208 110 388 280 503 473 95
161 140 294 173 510 8 50 7 203 -1 275 -47 437 -340 842 -731 1014 l-42 19 0
3026 0 3026 22 11 c12 6 81 43 152 84 72 40 159 89 195 108 36 19 79 42 95 52
17 10 244 137 505 283 261 145 491 273 510 284 19 11 91 51 160 88 69 38 139
77 155 86 17 10 47 27 67 38 20 11 173 96 340 189 383 214 376 210 483 269
182 101 279 156 283 159 4 3 -419 743 -449 786 -11 15 -19 32 -19 38 0 17 -9
13 -150 -66z m-2649 -9010 c230 -68 419 -281 456 -516 20 -127 -2 -276 -58
-392 -89 -182 -280 -324 -475 -352 -210 -31 -407 31 -555 176 -134 132 -198
283 -197 473 0 166 72 333 192 450 83 80 143 117 261 158 69 24 298 26 376 3z"/>
<path d="M4745 8867 c-11 -6 -14 -50 -15 -210 -2 -251 -9 -752 -25 -1967 -4
-301 -14 -1034 -20 -1509 l-3 -263 56 -35 c62 -38 544 -316 632 -365 30 -17
67 -39 82 -49 14 -11 28 -19 31 -19 3 0 109 -60 235 -133 126 -74 236 -137
243 -141 8 -3 30 -16 49 -27 19 -12 125 -73 235 -137 110 -63 238 -138 285
-165 47 -27 105 -61 130 -75 25 -14 86 -49 135 -78 50 -29 277 -160 505 -292
228 -131 593 -342 810 -467 217 -125 409 -236 425 -245 17 -10 172 -99 345
-200 173 -100 340 -196 370 -212 30 -17 60 -34 65 -38 6 -4 26 -17 45 -28 19
-10 159 -91 310 -179 152 -87 282 -162 290 -166 8 -4 110 -62 225 -129 l210
-123 0 -140 c1 -77 4 -165 9 -195 57 -408 296 -757 646 -943 130 -69 259 -115
370 -133 19 -3 55 -10 80 -14 48 -9 307 -6 354 4 180 40 249 63 361 119 119
59 246 149 336 238 16 16 123 143 142 170 47 63 129 231 161 331 69 210 81
453 33 673 -97 446 -445 809 -894 936 -344 97 -746 31 -1044 -172 -33 -22 -67
-38 -74 -35 -16 6 -401 227 -457 263 -21 12 -39 23 -42 23 -2 0 -66 37 -142
81 -77 45 -157 92 -179 104 -22 12 -67 38 -100 57 -33 19 -163 94 -290 168
-217 125 -455 263 -493 285 -14 9 -64 37 -174 100 -20 11 -380 219 -663 383
-544 314 -1034 597 -1065 614 -19 11 -64 37 -100 58 -36 21 -81 47 -100 58
-19 11 -181 104 -360 207 -179 104 -345 199 -370 213 -25 14 -63 36 -84 50
-22 13 -58 34 -80 47 -23 12 -140 79 -261 150 -121 70 -231 134 -244 141 l-25
13 3 243 c2 134 5 311 6 393 3 161 15 959 20 1320 9 573 17 1097 20 1263 2
131 0 182 -9 183 -73 5 -931 2 -941 -4z m6955 -6778 c335 -17 599 -302 602
-649 2 -262 -175 -516 -419 -601 -248 -88 -504 -30 -685 152 -134 136 -195
298 -185 489 5 95 27 187 50 213 6 7 23 33 36 57 46 87 92 149 137 185 62 51
148 101 206 121 50 16 189 43 198 38 3 -1 30 -3 60 -5z"/>
<path d="M20118 7875 c-2 -2 -25 -6 -53 -10 -248 -32 -523 -173 -707 -361
-193 -198 -286 -380 -354 -689 -4 -16 -7 -106 -8 -200 l-3 -169 -29 -18 c-16
-10 -40 -24 -54 -31 -14 -6 -56 -31 -95 -53 -38 -23 -86 -51 -105 -62 -19 -11
-282 -163 -585 -337 -302 -175 -564 -326 -582 -336 -17 -10 -50 -29 -72 -43
-22 -15 -43 -26 -46 -26 -2 0 -33 -17 -67 -38 -35 -21 -70 -41 -78 -45 -8 -4
-31 -17 -50 -28 -19 -12 -109 -64 -200 -116 -91 -53 -349 -203 -575 -333 -352
-204 -652 -377 -865 -499 -30 -17 -62 -35 -70 -41 -8 -5 -85 -49 -170 -98
-214 -122 -482 -278 -522 -302 -18 -11 -39 -23 -47 -27 -8 -3 -64 -35 -125
-71 -61 -36 -127 -74 -146 -85 -97 -55 -567 -326 -646 -373 -51 -30 -96 -54
-102 -54 -6 0 -120 66 -254 146 -134 81 -256 154 -273 164 -16 9 -149 89 -295
176 -146 87 -274 163 -285 169 -11 7 -73 44 -138 83 -65 40 -122 72 -127 72
-6 0 -10 4 -10 9 0 5 -8 11 -17 14 -17 5 -63 32 -88 50 -10 7 -525 315 -580
347 -34 19 -798 475 -832 496 -26 16 6 65 -265 -406 -266 -461 -244 -416 -211
-434 16 -8 165 -96 332 -195 166 -100 307 -181 312 -181 5 0 9 -4 9 -10 0 -5
4 -10 9 -10 5 0 99 -53 208 -119 109 -65 583 -347 1053 -626 470 -279 947
-563 1060 -630 113 -67 247 -147 299 -178 l93 -55 82 47 c71 42 349 203 446
259 19 11 80 46 135 78 55 31 138 79 185 106 47 27 101 59 120 70 109 63 291
168 330 190 48 27 54 30 360 208 107 62 211 121 230 132 19 11 134 78 255 148
121 70 240 138 265 152 25 14 86 49 135 78 50 29 110 64 135 78 25 14 62 36
82 49 21 12 40 23 43 23 4 0 25 13 48 28 23 15 53 33 67 40 14 7 41 22 60 33
29 18 507 293 1465 846 99 57 187 108 195 113 15 9 103 60 205 118 113 65 465
268 533 309 41 23 76 43 78 43 2 0 21 11 42 24 43 28 129 78 188 108 l41 20
59 -40 c96 -65 205 -118 320 -155 449 -145 935 -31 1270 298 91 89 140 153
207 266 67 113 136 297 153 409 31 196 26 357 -17 529 -84 336 -294 615 -597
792 -134 79 -287 131 -456 157 -54 9 -300 14 -308 7z m290 -630 c174 -41 341
-174 421 -335 53 -109 74 -208 68 -320 -6 -97 -11 -127 -34 -190 -94 -255
-317 -419 -583 -426 -161 -5 -290 34 -413 125 -83 61 -123 115 -211 281 -107
205 -36 534 154 708 62 57 250 167 250 147 0 -3 9 -1 20 5 10 6 45 13 77 16
32 4 59 7 60 8 8 7 137 -7 191 -19z"/>
</g>
</svg>
